<svg id="visual" viewBox="0 0 900 450" width="900" height="450" xmlns="http://www.w3.org/2000/svg" xmlns:xlink="http://www.w3.org/1999/xlink" version="1.1"><path d="M0 277L21.5 282C43 287 86 297 128.8 301.2C171.7 305.3 214.3 303.7 257.2 296.2C300 288.7 343 275.3 385.8 279C428.7 282.7 471.3 303.3 514.2 305.3C557 307.3 600 290.7 642.8 289.7C685.7 288.7 728.3 303.3 771.2 306.2C814 309 857 300 878.5 295.5L900 291L900 451L878.5 451C857 451 814 451 771.2 451C728.3 451 685.7 451 642.8 451C600 451 557 451 514.2 451C471.3 451 428.7 451 385.8 451C343 451 300 451 257.2 451C214.3 451 171.7 451 128.8 451C86 451 43 451 21.5 451L0 451Z" fill="#ffbf69"></path><path d="M0 327L21.5 331.7C43 336.3 86 345.7 128.8 342.8C171.7 340 214.3 325 257.2 321.7C300 318.3 343 326.7 385.8 329.2C428.7 331.7 471.3 328.3 514.2 329.3C557 330.3 600 335.7 642.8 338C685.7 340.3 728.3 339.7 771.2 332.8C814 326 857 313 878.5 306.5L900 300L900 451L878.5 451C857 451 814 451 771.2 451C728.3 451 685.7 451 642.8 451C600 451 557 451 514.2 451C471.3 451 428.7 451 385.8 451C343 451 300 451 257.2 451C214.3 451 171.7 451 128.8 451C86 451 43 451 21.5 451L0 451Z" fill="#f8ac54"></path><path d="M0 357L21.5 352.5C43 348 86 339 128.8 337.3C171.7 335.7 214.3 341.3 257.2 342.7C300 344 343 341 385.8 341.8C428.7 342.7 471.3 347.3 514.2 353.5C557 359.7 600 367.3 642.8 364.2C685.7 361 728.3 347 771.2 346.8C814 346.7 857 360.3 878.5 367.2L900 374L900 451L878.5 451C857 451 814 451 771.2 451C728.3 451 685.7 451 642.8 451C600 451 557 451 514.2 451C471.3 451 428.7 451 385.8 451C343 451 300 451 257.2 451C214.3 451 171.7 451 128.8 451C86 451 43 451 21.5 451L0 451Z" fill="#f19941"></path><path d="M0 403L21.5 398.5C43 394 86 385 128.8 384.5C171.7 384 214.3 392 257.2 396.5C300 401 343 402 385.8 400.8C428.7 399.7 471.3 396.3 514.2 390.8C557 385.3 600 377.7 642.8 378.3C685.7 379 728.3 388 771.2 393.3C814 398.7 857 400.3 878.5 401.2L900 402L900 451L878.5 451C857 451 814 451 771.2 451C728.3 451 685.7 451 642.8 451C600 451 557 451 514.2 451C471.3 451 428.7 451 385.8 451C343 451 300 451 257.2 451C214.3 451 171.7 451 128.8 451C86 451 43 451 21.5 451L0 451Z" fill="#ea852f"></path><path d="M0 395L21.5 398.7C43 402.3 86 409.7 128.8 410.7C171.7 411.7 214.3 406.3 257.2 403.5C300 400.7 343 400.3 385.8 399.3C428.7 398.3 471.3 396.7 514.2 399.7C557 402.7 600 410.3 642.8 411.3C685.7 412.3 728.3 406.7 771.2 402.7C814 398.7 857 396.3 878.5 395.2L900 394L900 451L878.5 451C857 451 814 451 771.2 451C728.3 451 685.7 451 642.8 451C600 451 557 451 514.2 451C471.3 451 428.7 451 385.8 451C343 451 300 451 257.2 451C214.3 451 171.7 451 128.8 451C86 451 43 451 21.5 451L0 451Z" fill="#e2711d"></path></svg>