<svg id="visual" viewBox="0 0 960 540" width="960" height="540" xmlns="http://www.w3.org/2000/svg" xmlns:xlink="http://www.w3.org/1999/xlink" version="1.1"><rect x="0" y="0" width="960" height="540" fill="#E26C1D"></rect><path d="M0 357L22.8 358C45.7 359 91.3 361 137 363C182.7 365 228.3 367 274 359.7C319.7 352.3 365.3 335.7 411.2 327C457 318.3 503 317.7 548.8 321.7C594.7 325.7 640.3 334.3 686 334C731.7 333.7 777.3 324.3 823 322.3C868.7 320.3 914.3 325.7 937.2 328.3L960 331L960 541L937.2 541C914.3 541 868.7 541 823 541C777.3 541 731.7 541 686 541C640.3 541 594.7 541 548.8 541C503 541 457 541 411.2 541C365.3 541 319.7 541 274 541C228.3 541 182.7 541 137 541C91.3 541 45.7 541 22.8 541L0 541Z" fill="#e26c1d"></path><path d="M0 359L22.8 363.5C45.7 368 91.3 377 137 379.5C182.7 382 228.3 378 274 384.8C319.7 391.7 365.3 409.3 411.2 407.3C457 405.3 503 383.7 548.8 373C594.7 362.3 640.3 362.7 686 362.2C731.7 361.7 777.3 360.3 823 366C868.7 371.7 914.3 384.3 937.2 390.7L960 397L960 541L937.2 541C914.3 541 868.7 541 823 541C777.3 541 731.7 541 686 541C640.3 541 594.7 541 548.8 541C503 541 457 541 411.2 541C365.3 541 319.7 541 274 541C228.3 541 182.7 541 137 541C91.3 541 45.7 541 22.8 541L0 541Z" fill="#aa521b"></path><path d="M0 440L22.8 437.2C45.7 434.3 91.3 428.7 137 421.8C182.7 415 228.3 407 274 405.3C319.7 403.7 365.3 408.3 411.2 411.2C457 414 503 415 548.8 418.8C594.7 422.7 640.3 429.3 686 428.5C731.7 427.7 777.3 419.3 823 415C868.7 410.7 914.3 410.3 937.2 410.2L960 410L960 541L937.2 541C914.3 541 868.7 541 823 541C777.3 541 731.7 541 686 541C640.3 541 594.7 541 548.8 541C503 541 457 541 411.2 541C365.3 541 319.7 541 274 541C228.3 541 182.7 541 137 541C91.3 541 45.7 541 22.8 541L0 541Z" fill="#753a17"></path><path d="M0 432L22.8 440.5C45.7 449 91.3 466 137 472.5C182.7 479 228.3 475 274 467.5C319.7 460 365.3 449 411.2 450.2C457 451.3 503 464.7 548.8 466.2C594.7 467.7 640.3 457.3 686 450.7C731.7 444 777.3 441 823 442.5C868.7 444 914.3 450 937.2 453L960 456L960 541L937.2 541C914.3 541 868.7 541 823 541C777.3 541 731.7 541 686 541C640.3 541 594.7 541 548.8 541C503 541 457 541 411.2 541C365.3 541 319.7 541 274 541C228.3 541 182.7 541 137 541C91.3 541 45.7 541 22.8 541L0 541Z" fill="#432311"></path><path d="M0 508L22.8 506.2C45.7 504.3 91.3 500.7 137 501.7C182.7 502.7 228.3 508.3 274 510.3C319.7 512.3 365.3 510.7 411.2 506.8C457 503 503 497 548.8 496.8C594.7 496.7 640.3 502.3 686 505.3C731.7 508.3 777.3 508.7 823 507.7C868.7 506.7 914.3 504.3 937.2 503.2L960 502L960 541L937.2 541C914.3 541 868.7 541 823 541C777.3 541 731.7 541 686 541C640.3 541 594.7 541 548.8 541C503 541 457 541 411.2 541C365.3 541 319.7 541 274 541C228.3 541 182.7 541 137 541C91.3 541 45.7 541 22.8 541L0 541Z" fill="#170b03"></path></svg>